<svg [attr.width]="width" [attr.height]="height" viewBox="0 0 1119 746" version="1.1" xmlns="http://www.w3.org/2000/svg" xmlns:xlink="http://www.w3.org/1999/xlink">
    <!-- Generator: Sketch 54.1 (76490) - https://sketchapp.com -->
    <title>247253-vmw-lgo-prod-blockchain-blk</title>
    <desc>Created with Sketch.</desc>
    <g id="247253-vmw-lgo-prod-blockchain-blk" stroke="none" stroke-width="1" fill="none" fill-rule="evenodd">
        <path d="M503.537,242.452 L468.449,142.528 C467.998,141.142 467.327,139.325 467.327,137.731 C467.327,133.395 470.912,129.283 476.025,129.283 C480.499,129.283 483.413,132.248 484.77,136.584 L513.84,222.687 L543.112,136.344 C544.453,132.248 547.134,129.283 551.592,129.283 L552.496,129.283 C557.203,129.283 560.103,132.248 561.443,136.344 L590.483,222.687 L620.021,136.137 C621.143,132.471 623.59,129.283 628.297,129.283 C633.207,129.283 636.792,133.156 636.792,137.507 C636.792,139.102 636.107,140.918 635.67,142.306 L600.349,242.452 C598.541,247.68 594.987,250.421 590.95,250.421 L590.295,250.421 C585.807,250.421 582.455,247.68 580.881,242.452 L552.06,157.543 L522.989,242.452 C521.431,247.68 518.064,250.421 513.606,250.421 L513.138,250.421 C508.899,250.421 505.329,247.68 503.537,242.452" id="Fill-1" fill="#1C1B19"></path>
        <path d="M759.333,137.995 C759.333,133.182 763.137,129.053 767.828,129.053 C772.77,129.053 776.572,132.943 776.572,137.995 L776.572,158.27 C785.083,138.569 803.929,129.276 816.43,129.276 C821.605,129.276 824.956,133.182 824.956,138.202 C824.956,143.016 821.822,146.443 817.318,147.145 C794.919,149.886 776.572,167.069 776.572,201.195 L776.572,241.346 C776.572,246.159 772.987,250.256 768.062,250.256 C763.137,250.256 759.333,246.351 759.333,241.346 L759.333,137.995" id="Fill-2" fill="#1C1B19"></path>
        <path d="M913.852,183.604 C912.09,162.293 900.229,143.724 877.643,143.724 C857.894,143.724 842.96,160.7 840.81,183.604 L913.852,183.604 Z M880.276,251.377 C849.117,251.377 823.663,226.672 823.663,190.41 L823.663,189.932 C823.663,156.189 846.701,128.981 878.078,128.981 C911.638,128.981 930.748,157.289 930.748,188.354 C930.748,193.136 926.991,196.531 922.846,196.531 L840.81,196.531 C843.194,221.906 860.512,236.188 880.729,236.188 C894.773,236.188 905.061,230.514 913.415,222.575 C914.725,221.46 916.268,220.552 918.247,220.552 C922.409,220.552 925.697,223.962 925.697,228.043 C925.697,230.067 924.825,232.123 923.064,233.685 C912.324,244.333 899.589,251.377 880.276,251.377 L880.276,251.377 Z" id="Fill-3" fill="#1C1B19"></path>
        <path d="M722.168,205.552 L722.168,194.141 C713.673,191.622 702.279,189.103 688.22,189.103 C666.584,189.103 654.504,198.698 654.504,213.522 L654.504,213.985 C654.504,228.824 667.909,237.495 683.543,237.495 C704.742,237.495 722.168,224.25 722.168,205.552 M637.093,214.687 L637.093,214.223 C637.093,189.342 657.2,176.081 686.427,176.081 C701.172,176.081 711.662,178.137 721.966,181.118 L721.966,177.005 C721.966,155.774 709.2,144.808 687.565,144.808 C675.937,144.808 669.188,146.323 660.693,150.179 C659.585,150.658 658.463,150.88 657.574,150.88 C653.568,150.88 649.984,147.454 649.984,143.342 C649.984,139.707 651.526,137.444 654.676,136.025 C666.038,130.988 674.611,129.298 689.342,129.298 C705.63,129.298 718.147,133.619 726.61,142.306 C734.436,150.308 738.457,161.719 738.457,176.782 L738.457,241.926 C738.457,246.931 734.888,250.598 730.165,250.598 C725.286,250.598 721.966,246.931 721.966,242.373 L721.966,231.119 C713.907,241.862 700.502,251.442 680.223,251.442 C658.775,251.442 637.093,238.881 637.093,214.687" id="Fill-4" fill="#1C1B19"></path>
        <path d="M190.764,136.692 C186.976,128.213 177.639,124.372 168.91,128.34 C160.181,132.31 156.955,142.224 160.914,150.703 L197.544,232.138 C203.312,244.904 209.375,251.583 220.769,251.583 C232.959,251.583 238.258,244.299 244.01,232.138 C244.01,232.138 275.964,160.984 276.291,160.235 C276.618,159.486 277.647,157.19 280.889,157.207 C283.649,157.238 285.955,159.47 285.955,162.466 L285.955,232.058 C285.955,242.784 291.769,251.583 302.961,251.583 C314.152,251.583 320.2,242.784 320.2,232.058 L320.2,175.122 C320.2,164.156 327.885,157.031 338.375,157.031 C348.866,157.031 355.849,164.396 355.849,175.122 L355.849,232.058 C355.849,242.784 361.678,251.583 372.855,251.583 C384.03,251.583 390.11,242.784 390.11,232.058 L390.11,175.122 C390.11,164.156 397.778,157.031 408.269,157.031 C418.743,157.031 425.742,164.396 425.742,175.122 L425.742,232.058 C425.742,242.784 431.572,251.583 442.763,251.583 C453.924,251.583 460.003,242.784 460.003,232.058 L460.003,167.264 C460.003,143.451 441.283,126.762 418.743,126.762 C396.236,126.762 382.129,142.686 382.129,142.686 C374.647,132.756 364.313,126.779 346.839,126.779 C328.384,126.779 312.251,142.686 312.251,142.686 C304.754,132.756 291.987,126.779 281.42,126.779 C265.069,126.779 252.084,134.127 244.166,152.648 L220.769,209.041 L190.764,136.692" id="Fill-5" fill="#1C1B19"></path>
        <path d="M957.957,143.651 L957.957,143.604 C957.957,137.069 953.001,131.681 946.407,131.681 C939.876,131.681 934.842,137.148 934.842,143.651 L934.842,143.731 C934.842,150.267 939.814,155.638 946.407,155.638 C952.939,155.638 957.957,150.171 957.957,143.651 M932.145,143.748 L932.145,143.651 C932.145,135.682 938.458,128.972 946.407,128.972 C954.466,128.972 960.7,135.618 960.7,143.588 L960.7,143.651 C960.7,151.653 954.388,158.364 946.407,158.364 C938.349,158.364 932.145,151.732 932.145,143.748" id="Fill-6" fill="#1C1B19"></path>
        <path d="M947.087,143.184 C948.568,143.184 949.394,142.387 949.394,141.192 L949.394,141.144 C949.394,139.821 948.505,139.121 947.025,139.121 L944,139.121 L944,143.184 L947.087,143.184 Z M940.945,137.877 C940.945,137.001 941.631,136.315 942.488,136.315 L947.258,136.315 C949.035,136.315 950.422,136.825 951.295,137.765 C952.074,138.546 952.495,139.663 952.495,140.985 L952.495,141.033 C952.495,143.249 951.404,144.619 949.736,145.32 L951.841,147.95 C952.137,148.349 952.324,148.668 952.324,149.146 C952.324,150.007 951.622,150.581 950.89,150.581 C950.204,150.581 949.752,150.23 949.394,149.783 L946.432,145.942 L944,145.942 L944,149.034 C944,149.895 943.346,150.581 942.488,150.581 C941.631,150.581 940.945,149.895 940.945,149.034 L940.945,137.877 L940.945,137.877 Z" id="Fill-7" fill="#1C1B19"></path>
        <polyline id="Fill-8" fill="#1C1B19" points="158.834 381.669 158.834 373.831 930.748 373.828 930.748 381.666 158.834 381.669"></polyline>
        <path d="M277.312,576.217 C281.278,576.217 284.55,575.127 287.129,572.945 C289.706,570.763 290.997,567.967 290.997,564.555 C290.997,561.145 289.706,558.348 287.129,556.166 C284.55,553.984 281.278,552.893 277.312,552.893 L253.393,552.893 L253.393,576.217 L277.312,576.217 Z M275.051,540.754 C278.699,540.754 281.694,539.785 284.035,537.839 C286.374,535.896 287.546,533.457 287.546,530.521 C287.546,527.506 286.374,525.028 284.035,523.084 C281.694,521.14 278.699,520.168 275.051,520.168 L253.393,520.168 L253.393,540.754 L275.051,540.754 Z M238.637,507.316 L278.74,507.316 C283.42,507.316 287.585,508.19 291.235,509.934 C294.883,511.68 297.72,514.12 299.743,517.252 C301.766,520.387 302.777,523.898 302.777,527.784 C302.777,535.718 298.929,541.748 291.235,545.872 C295.995,548.173 299.684,551.128 302.302,554.738 C304.92,558.348 306.229,562.374 306.229,566.816 C306.229,571.1 305.117,574.928 302.897,578.299 C300.675,581.672 297.581,584.309 293.615,586.212 C289.647,588.117 285.166,589.069 280.168,589.069 L238.637,589.069 L238.637,507.316 L238.637,507.316 Z" id="Fill-9" fill="#1C1B19"></path>
        <polygon id="Fill-10" fill="#1C1B19" points="321.46 589.069 335.978 589.069 335.978 505.888 321.46 505.888"></polygon>
        <path d="M391.669,575.443 C394.525,573.659 396.804,571.24 398.511,568.184 C400.216,565.131 401.069,561.818 401.069,558.248 C401.069,554.678 400.236,551.387 398.57,548.371 C396.904,545.357 394.623,542.957 391.728,541.171 C388.831,539.386 385.719,538.494 382.387,538.494 C378.975,538.494 375.841,539.386 372.986,541.171 C370.13,542.957 367.848,545.357 366.143,548.371 C364.436,551.387 363.585,554.678 363.585,558.248 C363.585,561.818 364.436,565.131 366.143,568.184 C367.848,571.24 370.13,573.659 372.986,575.443 C375.841,577.228 378.975,578.121 382.387,578.121 C385.719,578.121 388.813,577.228 391.669,575.443 Z M365.846,586.154 C360.768,583.258 356.742,579.332 353.767,574.373 C350.792,569.416 349.305,564.04 349.305,558.248 C349.305,552.458 350.792,547.103 353.767,542.183 C356.742,537.265 360.768,533.358 365.846,530.461 C370.922,527.566 376.437,526.118 382.387,526.118 C388.337,526.118 393.829,527.566 398.868,530.461 C403.905,533.358 407.892,537.265 410.828,542.183 C413.762,547.103 415.231,552.458 415.231,558.248 C415.231,564.04 413.762,569.416 410.828,574.373 C407.892,579.332 403.905,583.258 398.868,586.154 C393.829,589.05 388.337,590.497 382.387,590.497 C376.437,590.497 370.922,589.05 365.846,586.154 L365.846,586.154 Z" id="Fill-11" fill="#1C1B19"></path>
        <path d="M440.518,586.094 C435.479,583.16 431.453,579.212 428.44,574.253 C425.423,569.296 423.918,563.96 423.918,558.248 C423.918,552.536 425.423,547.222 428.44,542.302 C431.453,537.384 435.5,533.457 440.577,530.521 C445.653,527.586 451.128,526.118 457,526.118 C461.6,526.118 465.883,527.01 469.851,528.795 C473.818,530.581 477.308,533.02 480.323,536.114 L470.566,544.682 C468.9,542.778 466.836,541.272 464.378,540.16 C461.918,539.049 459.419,538.494 456.881,538.494 C453.548,538.494 450.454,539.386 447.598,541.171 C444.742,542.957 442.482,545.377 440.816,548.43 C439.15,551.485 438.317,554.757 438.317,558.248 C438.317,561.818 439.15,565.131 440.816,568.184 C442.482,571.24 444.742,573.659 447.598,575.443 C450.454,577.228 453.548,578.121 456.881,578.121 C459.499,578.121 462.057,577.546 464.556,576.395 C467.055,575.247 469.176,573.679 470.923,571.695 L480.68,580.144 C477.587,583.398 474.016,585.936 469.97,587.76 C465.924,589.584 461.561,590.497 456.881,590.497 C451.008,590.497 445.555,589.03 440.518,586.094" id="Fill-12" fill="#1C1B19"></path>
        <polyline id="Fill-13" fill="#1C1B19" points="492.223 505.888 506.741 505.888 506.741 556.582 533.278 527.545 550.415 527.545 525.186 555.035 549.7 589.069 532.682 589.069 515.428 564.555 506.741 573.599 506.741 589.069 492.223 589.069 492.223 505.888"></polyline>
        <path d="M572.727,586.094 C567.688,583.16 563.662,579.212 560.647,574.253 C557.631,569.296 556.126,563.96 556.126,558.248 C556.126,552.536 557.631,547.222 560.647,542.302 C563.662,537.384 567.707,533.457 572.785,530.521 C577.861,527.586 583.336,526.118 589.207,526.118 C593.807,526.118 598.092,527.01 602.059,528.795 C606.026,530.581 609.516,533.02 612.531,536.114 L602.774,544.682 C601.108,542.778 599.043,541.272 596.586,540.16 C594.125,539.049 591.627,538.494 589.088,538.494 C585.756,538.494 582.662,539.386 579.807,541.171 C576.951,542.957 574.69,545.377 573.024,548.43 C571.358,551.485 570.524,554.757 570.524,558.248 C570.524,561.818 571.358,565.131 573.024,568.184 C574.69,571.24 576.951,573.659 579.807,575.443 C582.662,577.228 585.756,578.121 589.088,578.121 C591.707,578.121 594.266,577.546 596.764,576.395 C599.264,575.247 601.385,573.679 603.131,571.695 L612.889,580.144 C609.795,583.398 606.225,585.936 602.178,587.76 C598.133,589.584 593.768,590.497 589.088,590.497 C583.217,590.497 577.764,589.03 572.727,586.094" id="Fill-14" fill="#1C1B19"></path>
        <path d="M669.889,529.153 C673.379,531.175 676.096,533.993 678.041,537.601 C679.984,541.212 680.957,545.318 680.957,549.918 L680.957,589.069 L666.795,589.069 L666.795,552.774 C666.795,548.57 665.606,545.139 663.225,542.48 C660.846,539.824 657.752,538.494 653.943,538.494 C649.736,538.494 646.188,539.785 643.293,542.362 C640.397,544.94 638.949,548.094 638.949,551.822 L638.949,589.069 L624.432,589.069 L624.432,505.888 L638.949,505.888 L638.949,535.876 C640.854,532.942 643.49,530.581 646.863,528.795 C650.234,527.01 653.943,526.118 657.988,526.118 C662.432,526.118 666.397,527.129 669.889,529.153" id="Fill-15" fill="#1C1B19"></path>
        <path d="M728.734,577.169 C731.867,575.345 733.791,572.885 734.506,569.791 L734.506,562.77 C729.746,561.264 724.748,560.509 719.512,560.509 C715.781,560.509 712.649,561.442 710.111,563.305 C707.57,565.17 706.303,567.53 706.303,570.386 C706.303,573.242 707.451,575.544 709.754,577.288 C712.055,579.034 714.949,579.906 718.442,579.906 C722.17,579.906 725.6,578.995 728.734,577.169 Z M741.586,533.199 C746.305,537.919 748.666,544.206 748.666,552.06 L748.666,589.069 L734.506,589.069 L734.506,581.81 C732.283,584.507 729.428,586.629 725.938,588.176 C722.445,589.723 718.877,590.497 715.229,590.497 C710.863,590.497 706.957,589.682 703.506,588.057 C700.055,586.432 697.338,584.13 695.356,581.156 C693.371,578.18 692.381,574.75 692.381,570.862 C692.381,566.896 693.49,563.365 695.713,560.271 C697.932,557.177 700.947,554.757 704.756,553.012 C708.565,551.268 712.768,550.394 717.369,550.394 C722.844,550.394 728.557,551.465 734.506,553.607 L734.506,552.06 C734.506,548.014 733.295,544.664 730.877,542.004 C728.455,539.347 724.668,538.018 719.512,538.018 C714.592,538.018 709.039,539.565 702.852,542.659 L697.854,532.544 C706.58,528.26 714.752,526.118 722.367,526.118 C730.459,526.118 736.865,528.479 741.586,533.199 L741.586,533.199 Z" id="Fill-16" fill="#1C1B19"></path>
        <path d="M765.443,589.069 L779.961,589.069 L779.961,527.545 L765.443,527.545 L765.443,589.069 Z M766.813,515.765 C765.186,514.099 764.373,512.156 764.373,509.934 C764.373,507.713 765.186,505.79 766.813,504.163 C768.438,502.538 770.401,501.723 772.703,501.723 C774.924,501.723 776.848,502.538 778.475,504.163 C780.1,505.79 780.914,507.713 780.914,509.934 C780.914,512.156 780.1,514.099 778.475,515.765 C776.848,517.431 774.924,518.264 772.703,518.264 C770.401,518.264 768.438,517.431 766.813,515.765 L766.813,515.765 Z" id="Fill-17" fill="#1C1B19"></path>
        <path d="M843.506,529.153 C846.996,531.175 849.713,533.993 851.658,537.601 C853.602,541.212 854.574,545.318 854.574,549.918 L854.574,589.069 L840.412,589.069 L840.412,552.774 C840.412,548.57 839.223,545.139 836.842,542.48 C834.463,539.824 831.369,538.494 827.561,538.494 C823.354,538.494 819.805,539.785 816.91,542.362 C814.014,544.94 812.567,548.094 812.567,551.822 L812.567,589.069 L798.049,589.069 L798.049,527.545 L812.567,527.545 L812.567,535.876 C814.471,532.942 817.108,530.581 820.481,528.795 C823.852,527.01 827.561,526.118 831.606,526.118 C836.049,526.118 840.014,527.129 843.506,529.153" id="Fill-18" fill="#1C1B19"></path>
    </g>
</svg>
